<?xml version="1.0" encoding="UTF-8" standalone="no"?>
<!-- Created with Inkscape (http://www.inkscape.org/) -->

<svg
   xmlns:dc="http://purl.org/dc/elements/1.1/"
   xmlns:cc="http://creativecommons.org/ns#"
   xmlns:rdf="http://www.w3.org/1999/02/22-rdf-syntax-ns#"
   xmlns:svg="http://www.w3.org/2000/svg"
   xmlns="http://www.w3.org/2000/svg"
   xmlns:sodipodi="http://sodipodi.sourceforge.net/DTD/sodipodi-0.dtd"
   xmlns:inkscape="http://www.inkscape.org/namespaces/inkscape"
   width="14.611395mm"
   height="14.611429mm"
   viewBox="0 0 14.611395 14.611429"
   version="1.1"
   id="svg933"
   inkscape:version="0.92.4 (5da689c313, 2019-01-14)"
   sodipodi:docname="logo-mail-simple.svg">
  <defs
     id="defs927" />
  <sodipodi:namedview
     id="base"
     pagecolor="#ffffff"
     bordercolor="#666666"
     borderopacity="1.0"
     inkscape:pageopacity="0.0"
     inkscape:pageshadow="2"
     inkscape:zoom="2.8"
     inkscape:cx="24.296305"
     inkscape:cy="42.730378"
     inkscape:document-units="mm"
     inkscape:current-layer="layer1"
     showgrid="false"
     fit-margin-top="0"
     fit-margin-left="0"
     fit-margin-right="0"
     fit-margin-bottom="0"
     inkscape:window-width="1920"
     inkscape:window-height="1053"
     inkscape:window-x="0"
     inkscape:window-y="27"
     inkscape:window-maximized="1" />
  <metadata
     id="metadata930">
    <rdf:RDF>
      <cc:Work
         rdf:about="">
        <dc:format>image/svg+xml</dc:format>
        <dc:type
           rdf:resource="http://purl.org/dc/dcmitype/StillImage" />
        <dc:title></dc:title>
      </cc:Work>
    </rdf:RDF>
  </metadata>
  <g
     inkscape:label="Layer 1"
     inkscape:groupmode="layer"
     id="layer1"
     transform="translate(-1.2875591e-6,-282.38857)">
    <path
       style="fill:#ffffff;stroke-width:0.06614811"
       inkscape:connector-curvature="0"
       id="path901"
       d="m 10.914084,283.34206 a 7.3053972,7.3053972 0 0 1 2.74396,9.96058 7.3053972,7.3053972 0 0 1 -9.9605797,2.74402 7.3053972,7.3053972 0 0 1 -2.74415999,-9.96058 7.3053972,7.3053972 0 0 1 9.96058969,-2.74422 l -3.6080497,6.35234 z" />
    <path
       style="stroke-width:0.02623897"
       inkscape:connector-curvature="0"
       id="path903"
       d="m 7.2296343,294.25121 v -0.7697 h -0.80852 l 0.0214,-2.64136 0.0875,-0.15434 c 0.12386,-0.21856 0.23991,-0.29312 0.48371,-0.31075 0.27088,-0.0196 0.39361,0.0448 0.50103,0.26296 l 0.0823,0.16713 0.0103,2.10788 0.0103,2.10787 h -0.3879 z m -3.59766,-0.61809 c -0.18065,-0.14141 -0.60208,-0.63885 -0.8248,-0.97357 l -0.20128,-0.3025 0.0116,-0.77591 c 0.0104,-0.69198 0.0192,-0.791 0.0816,-0.91543 0.10217,-0.20367 0.26269,-0.29783 0.50774,-0.29783 0.22255,0 0.34618,0.0696 0.4375,0.24615 0.0909,0.17577 0.12483,0.75349 0.11442,1.9482 l -0.0101,1.16222 z m 7.0381597,-0.17761 -0.32054,-0.0115 -0.0156,-1.38938 c -0.0138,-1.23525 -0.0234,-1.4243 -0.0867,-1.70424 -0.14526,-0.64244 -0.3395597,-1.01855 -0.6958097,-1.34691 -0.39846,-0.36726 -0.81322,-0.51894 -1.50368,-0.54986 -0.53075,-0.0238 -0.83651,0.0378 -1.27328,0.25646 -0.22266,0.11147 -0.38976,0.22979 -0.58848,0.41674 l -0.27751,0.26106 -0.14334,-0.18579 c -0.36798,-0.47696 -0.87329,-0.70825 -1.6332,-0.74754 -0.63874,-0.033 -1.00723,0.11755 -1.54489,0.63127 l -0.32419,0.30976 -0.0369,-0.0999 c -0.0203,-0.0549 -0.0773,-0.20689 -0.12668,-0.33771 -0.1073,-0.2842 -0.0985,-0.38927 0.0777,-0.927 0.4374,-1.33527 1.42238,-2.4748 2.68885,-3.11088 1.46796,-0.73729 3.28108,-0.73788 4.76035,-0.002 0.27459,0.13665 0.8368397,0.49039 0.8732897,0.54945 0.0102,0.0165 -0.0562,0.0784 -0.14751,0.1376 -0.18576,0.12039 -0.4284297,0.33542 -0.4284297,0.37964 0,0.0159 0.1168997,0.14502 0.2597797,0.28694 l 0.25977,0.25804 0.1651,-0.14533 c 0.28566,-0.25144 0.58968,-0.27976 0.76513,-0.0713 0.10607,0.12606 0.11263,0.22284 0.0242,0.35696 -0.0625,0.0948 -0.15944,0.17327 -0.63464,0.51373 -0.31656,0.22679 -0.59874,0.50998 -0.7659297,0.76871 l -0.14564,0.22533 0.01,0.35139 0.01,0.35141 2.6588897,0.035 0.0224,0.20991 c 0.13276,1.24186 -0.18882,2.53453 -0.88771,3.56849 -0.17015,0.25172 -0.61999,0.79014 -0.65161,0.77989 -0.0124,-0.004 -0.1667,-0.0124 -0.34299,-0.0188 z m 0.23117,-5.32314 c 0.0547,-0.10219 0.33506,-0.33739 0.70163,-0.58856 0.18279,-0.12525 0.3494,-0.23447 0.37023,-0.24269 0.0317,-0.0125 0.2595,0.41699 0.2595,0.48937 0,0.0129 -0.11807,0.0235 -0.26239,0.0235 h -0.26239 v 0.38483 h -0.42105 c -0.40266,0 -0.4195,-0.003 -0.38552,-0.0664 z" />
  </g>
</svg>
