<?xml version="1.0" encoding="UTF-8" standalone="no"?>
<!-- Created with Inkscape (http://www.inkscape.org/) -->

<svg
   xmlns:dc="http://purl.org/dc/elements/1.1/"
   xmlns:cc="http://creativecommons.org/ns#"
   xmlns:rdf="http://www.w3.org/1999/02/22-rdf-syntax-ns#"
   xmlns:svg="http://www.w3.org/2000/svg"
   xmlns="http://www.w3.org/2000/svg"
   xmlns:xlink="http://www.w3.org/1999/xlink"
   xmlns:sodipodi="http://sodipodi.sourceforge.net/DTD/sodipodi-0.dtd"
   xmlns:inkscape="http://www.inkscape.org/namespaces/inkscape"
   width="13.229167mm"
   height="13.229219mm"
   viewBox="0 0 13.229167 13.229219"
   version="1.1"
   id="svg933"
   inkscape:version="0.92.4 (5da689c313, 2019-01-14)"
   sodipodi:docname="logo.svg">
  <defs
     id="defs927">
    <linearGradient
       inkscape:collect="always"
       id="linearGradient1412">
      <stop
         style="stop-color:#23d18b;stop-opacity:1"
         offset="0"
         id="stop1408" />
      <stop
         id="stop4570"
         offset="0.53767556"
         style="stop-color:#2fafba;stop-opacity:0.96470588;" />
      <stop
         style="stop-color:#3b8eea;stop-opacity:0.92941177"
         offset="1"
         id="stop4574" />
    </linearGradient>
    <linearGradient
       inkscape:collect="always"
       xlink:href="#linearGradient1412"
       id="linearGradient1414"
       x1="2.7403307"
       y1="252.96576"
       x2="46.000008"
       y2="293.99997"
       gradientUnits="userSpaceOnUse"
       spreadMethod="pad"
       gradientTransform="matrix(0.26458327,0,0,0.26458313,-0.53453738,224.83328)" />
  </defs>
  <sodipodi:namedview
     id="base"
     pagecolor="#ffffff"
     bordercolor="#666666"
     borderopacity="1.0"
     inkscape:pageopacity="0.0"
     inkscape:pageshadow="2"
     inkscape:zoom="15.839192"
     inkscape:cx="29.066357"
     inkscape:cy="23.250084"
     inkscape:document-units="mm"
     inkscape:current-layer="layer1"
     showgrid="true"
     fit-margin-top="0"
     fit-margin-left="0"
     fit-margin-right="0"
     fit-margin-bottom="0"
     inkscape:window-width="1920"
     inkscape:window-height="1053"
     inkscape:window-x="0"
     inkscape:window-y="27"
     inkscape:window-maximized="1"
     showguides="false">
    <inkscape:grid
       type="xygrid"
       id="grid864" />
  </sodipodi:namedview>
  <metadata
     id="metadata930">
    <rdf:RDF>
      <cc:Work
         rdf:about="">
        <dc:format>image/svg+xml</dc:format>
        <dc:type
           rdf:resource="http://purl.org/dc/dcmitype/StillImage" />
        <dc:title></dc:title>
      </cc:Work>
    </rdf:RDF>
  </metadata>
  <g
     inkscape:label="Layer 1"
     inkscape:groupmode="layer"
     id="layer1"
     transform="translate(0.5345378,-290.18524)"
     style="display:inline">
    <path
       style="fill:url(#linearGradient1414);fill-opacity:1;stroke-width:0.0327369"
       inkscape:connector-curvature="0"
       id="path903"
       d="m 5.984713,302.45875 v -0.95572 H 4.9711205 l 0.026828,-3.27972 0.1096936,-0.19164 c 0.1552759,-0.27138 0.3007607,-0.36396 0.6063981,-0.38585 0.3395858,-0.0243 0.4934451,0.0556 0.6281113,0.32651 l 0.1031738,0.20753 0.012912,2.6173 0.012912,2.6173 h -0.486286 z m -4.5101678,-0.76747 c -0.22647,-0.17558 -0.75479116,-0.79324 -1.03400169,-1.20886 L 0.188211,300.10681 0.2027525,299.14339 c 0.0130387,-0.85922 0.0240691,-0.98217 0.10229714,-1.13668 0.12808425,-0.25289 0.32931831,-0.3698 0.63652277,-0.3698 0.27899719,0 0.43398489,0.0864 0.54846709,0.30563 0.113956,0.21825 0.156492,0.9356 0.1434414,2.41904 l -0.012661,1.44311 z m 8.8233128,-0.22053 -0.4018413,-0.0143 -0.019556,-1.72517 c -0.0173,-1.53378 -0.029338,-1.76851 -0.1086906,-2.11611 -0.1821037,-0.7977 -0.4256849,-1.26472 -0.8722941,-1.67243 -0.4995255,-0.45602 -1.0194847,-0.64435 -1.8850725,-0.68275 -0.6653691,-0.0296 -1.0486814,0.0469 -1.5962338,0.31845 -0.2791351,0.1384 -0.4886181,0.28532 -0.7377418,0.51745 l -0.3478971,0.32415 -0.1796967,-0.23069 c -0.4613141,-0.59223 -1.0947908,-0.87941 -2.047444,-0.9282 -0.8007493,-0.041 -1.26270291,0.14595 -1.93673461,0.78383 l -0.40641829,0.38464 -0.0462593,-0.12405 c -0.0254487,-0.0682 -0.0969063,-0.25689 -0.15881102,-0.41932 -0.13451551,-0.35289 -0.1234835,-0.48335 0.0974077,-1.15104 0.54834173,-1.65797 1.78315122,-3.0729 3.37084792,-3.86271 1.840292,-0.91548 4.1132907,-0.91621 5.9677613,-0.003 0.3442374,0.16968 1.0490952,0.60891 1.0947902,0.68224 0.01279,0.0205 -0.07045,0.0974 -0.1849243,0.17086 -0.2328755,0.14948 -0.537096,0.41648 -0.537096,0.47139 0,0.0197 0.1465499,0.18007 0.3256699,0.35629 l 0.3256584,0.3204 0.206975,-0.18045 c 0.358114,-0.31221 0.739246,-0.34737 0.959197,-0.0885 0.132974,0.15653 0.141198,0.2767 0.03034,0.44323 -0.07835,0.11771 -0.19988,0.21515 -0.795609,0.63789 -0.396853,0.2816 -0.7506044,0.63323 -0.9602006,0.95449 l -0.1825799,0.27979 0.012538,0.43631 0.012537,0.43634 3.3332885,0.0434 0.02808,0.26064 c 0.166433,1.54199 -0.236712,3.14707 -1.112869,4.43091 -0.213307,0.31256 -0.777243,0.9811 -0.816883,0.96838 -0.01554,-0.005 -0.208982,-0.0154 -0.429986,-0.0233 z m 0.289804,-6.60963 c 0.06857,-0.12689 0.420044,-0.41893 0.879591,-0.7308 0.229153,-0.15552 0.438022,-0.29114 0.464135,-0.30134 0.03974,-0.0156 0.325319,0.51777 0.325319,0.60764 0,0.016 -0.148017,0.0292 -0.328942,0.0292 h -0.328942 v 0.47784 h -0.527845 c -0.504791,0 -0.525902,-0.004 -0.483303,-0.0824 z"
       inkscape:export-filename="/home/ricardo/massivemusic2/front/public/newlogo.png"
       inkscape:export-xdpi="95.999611"
       inkscape:export-ydpi="95.999611" />
  </g>
</svg>
