<?xml version="1.0" encoding="UTF-8" standalone="no"?>
<!-- Created with Inkscape (http://www.inkscape.org/) -->

<svg
   xmlns:dc="http://purl.org/dc/elements/1.1/"
   xmlns:cc="http://creativecommons.org/ns#"
   xmlns:rdf="http://www.w3.org/1999/02/22-rdf-syntax-ns#"
   xmlns:svg="http://www.w3.org/2000/svg"
   xmlns="http://www.w3.org/2000/svg"
   xmlns:sodipodi="http://sodipodi.sourceforge.net/DTD/sodipodi-0.dtd"
   xmlns:inkscape="http://www.inkscape.org/namespaces/inkscape"
   width="49.999996mm"
   height="50.000015mm"
   viewBox="0 0 49.999996 50.000014"
   version="1.1"
   id="svg933"
   inkscape:version="0.92.4 (5da689c313, 2019-01-14)"
   sodipodi:docname="logo-favicon.svg"
   inkscape:export-filename="/home/ricardo/bitmap.png"
   inkscape:export-xdpi="300"
   inkscape:export-ydpi="300">
  <defs
     id="defs927" />
  <sodipodi:namedview
     id="base"
     pagecolor="#ffffff"
     bordercolor="#666666"
     borderopacity="1.0"
     inkscape:pageopacity="0.0"
     inkscape:pageshadow="2"
     inkscape:zoom="1.4"
     inkscape:cx="117.93314"
     inkscape:cy="170.03353"
     inkscape:document-units="mm"
     inkscape:current-layer="layer4"
     showgrid="false"
     fit-margin-top="0"
     fit-margin-left="0"
     fit-margin-right="0"
     fit-margin-bottom="0"
     inkscape:window-width="1920"
     inkscape:window-height="1053"
     inkscape:window-x="1"
     inkscape:window-y="28"
     inkscape:window-maximized="1" />
  <metadata
     id="metadata930">
    <rdf:RDF>
      <cc:Work
         rdf:about="">
        <dc:format>image/svg+xml</dc:format>
        <dc:type
           rdf:resource="http://purl.org/dc/dcmitype/StillImage" />
        <dc:title></dc:title>
      </cc:Work>
    </rdf:RDF>
  </metadata>
  <g
     inkscape:groupmode="layer"
     id="layer2"
     inkscape:label="tool"
     style="display:inline">
    <rect
       style="fill:#5e8ac7;fill-opacity:1;stroke:none;stroke-width:0.26458332"
       id="rect907"
       width="4.7247024"
       height="4.7247024"
       x="9.8273811"
       y="-7.7830954" />
    <rect
       style="fill:#577967;fill-opacity:1;stroke:none;stroke-width:0.26458332"
       id="rect907-5"
       width="4.7247024"
       height="4.7247024"
       x="16.904985"
       y="-7.7830954" />
    <rect
       style="fill:#ab3129;fill-opacity:1;stroke:none;stroke-width:0.26458332"
       id="rect907-5-7"
       width="4.7247024"
       height="4.7247024"
       x="23.98259"
       y="-7.7830954" />
  </g>
  <g
     inkscape:groupmode="layer"
     id="layer3"
     inkscape:label="colors">
    <path
       style="fill:#ab3129;fill-opacity:1;stroke:none;stroke-width:0.2772277"
       id="path948"
       sodipodi:type="arc"
       sodipodi:cx="25"
       sodipodi:cy="25.000015"
       sodipodi:rx="25"
       sodipodi:ry="25"
       sodipodi:start="5.2289715"
       sodipodi:end="5.2289366"
       d="M 37.347787,3.2622106 A 25,25 0 0 1 46.737912,37.347613 25,25 0 0 1 12.652592,46.738035 25,25 0 0 1 3.2618721,12.652797 25,25 0 0 1 37.347029,3.2617797 L 25,25.000015 Z" />
    <path
       style="fill:#577967;fill-opacity:1;stroke:none;stroke-width:1.04778969"
       d="M 99.529297,0.09960937 A 94.488189,94.488189 0 0 0 13.046875,47.822266 94.488189,94.488189 0 0 0 9.0429688,133.00781 94.488189,94.488189 0 0 0 31.189453,150.42188 94.488189,94.488189 0 0 0 160.01562,114.92969 94.488189,94.488189 0 0 0 164.02344,29.746094 94.488189,94.488189 0 0 0 141.875,12.330078 L 95.207031,94.488281 141.87305,12.328125 A 94.488189,94.488189 0 0 0 115.33984,2.2734375 L 77.857422,68.261719 115.33789,2.2734375 A 94.488189,94.488189 0 0 0 99.529297,0.09960937 Z"
       transform="scale(0.26458333)"
       id="path948-1"
       inkscape:connector-curvature="0" />
    <path
       style="fill:#5e8ac7;fill-opacity:1;stroke:none;stroke-width:1.04778969"
       d="M 98.810547,0.09960937 C 92.44317,-0.18812102 86.063019,0.16916745 79.767578,1.1660156 L 66.902344,23.814453 79.765625,1.1660156 C 51.357544,5.6448547 26.535634,22.817752 12.328125,47.822266 4.9213427,60.874696 0.73015743,75.503674 0.1015625,90.498047 6.0856653,96.538613 12.85774,101.74381 20.234375,105.97266 65.609598,131.74753 123.28816,115.85794 149.0625,70.482422 c 7.40708,-13.053013 11.59827,-27.682694 12.22656,-42.677734 -5.9841,-6.040565 -12.75618,-11.24576 -20.13281,-15.47461 L 94.488281,94.488281 141.1543,12.328125 C 128.20102,4.9710352 113.69175,0.78088161 98.810547,0.09960937 Z"
       transform="scale(0.26458333)"
       id="path948-1-6"
       inkscape:connector-curvature="0"
       sodipodi:nodetypes="ccccccccccccc" />
  </g>
  <g
     inkscape:groupmode="layer"
     id="layer4"
     inkscape:label="layer">
    <path
       style="fill:#b3b3b3;fill-opacity:0.40138412;stroke:none;stroke-width:0.26458332"
       d="m 38.931657,-85.788005 v 67.657886 h 95.627753 v -67.657886 z m 50.333878,8.896098 a 25,25 0 0 1 11.203455,3.235461 L 88.121937,-51.918237 100.4695,-73.655929 a 25,25 0 0 1 9.39013,34.085259 25,25 0 0 1 -34.08526,9.390642 25,25 0 0 1 -9.390642,-34.085259 25,25 0 0 1 22.881807,-12.62662 z"
       id="rect1026-2-1"
       inkscape:connector-curvature="0" />
  </g>
  <g
     inkscape:label="logo"
     inkscape:groupmode="layer"
     id="layer1"
     transform="translate(-3.2830416e-6,-246.99997)">
    <path
       style="stroke-width:0.12373009"
       inkscape:connector-curvature="0"
       id="path903"
       d="m 24.639693,293.38785 v -3.61217 h -3.830902 l 0.101396,-12.3958 0.41459,-0.72431 c 0.58687,-1.0257 1.136734,-1.3756 2.291899,-1.45834 1.283473,-0.092 1.864989,0.21025 2.373963,1.23406 l 0.38995,0.78434 0.04881,9.89219 0.04881,9.89216 H 24.640261 Z M 7.5933848,290.48717 C 6.7374351,289.82355 4.74063,287.48908 3.6853466,285.91826 l -0.9536981,-1.41963 0.054963,-3.64131 c 0.049277,-3.24744 0.090973,-3.71213 0.3866342,-4.29608 0.4840984,-0.95582 1.2446689,-1.3977 2.4057565,-1.3977 1.0544784,0 1.6402575,0.32663 2.0729469,1.15517 0.4306998,0.82488 0.5914657,3.5361 0.5421413,9.14282 l -0.047853,5.45425 z m 33.3479652,-0.8335 -1.518772,-0.054 -0.07391,-6.5203 c -0.06538,-5.79698 -0.11088,-6.68418 -0.410798,-7.99793 -0.688266,-3.01494 -1.60889,-4.78002 -3.296862,-6.321 -1.887969,-1.72353 -3.853171,-2.43536 -7.124684,-2.58047 -2.514782,-0.11163 -3.963522,0.17741 -6.033012,1.20357 -1.054999,0.52311 -1.846746,1.07839 -2.788316,1.95574 l -1.314887,1.22514 -0.679169,-0.87191 c -1.743549,-2.23834 -4.137792,-3.32378 -7.7383715,-3.50817 -3.0264558,-0.15487 -4.7724224,0.55166 -7.3199439,2.96253 l -1.53607,1.45374 -0.17483823,-0.46882 c -0.0961843,-0.25765 -0.3662602,-0.97094 -0.60023079,-1.58486 -0.50840515,-1.33375 -0.46670941,-1.82683 0.36815533,-4.35037 2.07247359,-6.26638 6.73947109,-11.61415 12.74021609,-14.59925 6.955436,-3.46007 15.546299,-3.46284 22.555325,-0.01 1.301053,0.64129 3.965085,2.30138 4.13779,2.57854 0.04834,0.0775 -0.266284,0.36794 -0.698926,0.64576 -0.880161,0.56499 -2.029971,1.57412 -2.029971,1.78164 0,0.0746 0.553891,0.68056 1.230879,1.34659 l 1.230834,1.21098 0.782271,-0.68204 c 1.353503,-1.17999 2.794001,-1.31289 3.625311,-0.33461 0.502579,0.5916 0.533661,1.04579 0.114661,1.6752 -0.296136,0.4449 -0.755454,0.81316 -3.007029,2.41093 -1.499914,1.06431 -2.83693,2.39331 -3.629103,3.60752 l -0.690066,1.05746 0.04738,1.64906 0.04738,1.64916 12.598259,0.16425 0.106132,0.98509 c 0.629038,5.828 -0.89466,11.89445 -4.206117,16.74679 -0.806199,1.18131 -2.937614,3.70809 -3.087436,3.66 -0.05875,-0.0188 -0.789852,-0.0581 -1.625143,-0.0882 z m 1.09532,-24.9813 c 0.259178,-0.47957 1.58757,-1.58335 3.32444,-2.76209 0.866089,-0.58779 1.655514,-1.10035 1.75421,-1.13893 0.1502,-0.0587 1.229555,1.95693 1.229555,2.2966 0,0.0605 -0.559435,0.11026 -1.243247,0.11026 h -1.243247 v 1.806 h -1.995005 c -1.90787,0 -1.987661,-0.0141 -1.826657,-0.3116 z" />
  </g>
</svg>
