<?xml version="1.0" encoding="UTF-8" standalone="no"?>
<svg
   xmlns:dc="http://purl.org/dc/elements/1.1/"
   xmlns:cc="http://creativecommons.org/ns#"
   xmlns:rdf="http://www.w3.org/1999/02/22-rdf-syntax-ns#"
   xmlns:svg="http://www.w3.org/2000/svg"
   xmlns="http://www.w3.org/2000/svg"
   xmlns:xlink="http://www.w3.org/1999/xlink"
   xmlns:sodipodi="http://sodipodi.sourceforge.net/DTD/sodipodi-0.dtd"
   xmlns:inkscape="http://www.inkscape.org/namespaces/inkscape"
   width="168.715"
   height="70"
   version="1.1"
   viewBox="0 0 674.83676 69.999999"
   id="svg1187"
   sodipodi:docname="logo+title.svg"
   inkscape:version="0.92.4 (5da689c313, 2019-01-14)"
   inkscape:export-filename="/home/ricardo/massivemusic2/front/public/logo.png"
   inkscape:export-xdpi="300"
   inkscape:export-ydpi="300">
  <metadata
     id="metadata1193">
    <rdf:RDF>
      <cc:Work
         rdf:about="">
        <dc:format>image/svg+xml</dc:format>
        <dc:type
           rdf:resource="http://purl.org/dc/dcmitype/StillImage" />
        <dc:title />
      </cc:Work>
    </rdf:RDF>
  </metadata>
  <defs
     id="defs1191">
    <linearGradient
       inkscape:collect="always"
       xlink:href="#linearGradient1412"
       id="linearGradient1414"
       x1="2.7403307"
       y1="252.96576"
       x2="46.000008"
       y2="293.99997"
       gradientUnits="userSpaceOnUse"
       spreadMethod="pad"
       gradientTransform="matrix(3.2124087,0,0,3.2124087,74.13294,-844.2511)" />
    <linearGradient
       inkscape:collect="always"
       id="linearGradient1412">
      <stop
         style="stop-color:#23d18b;stop-opacity:1"
         offset="0"
         id="stop1408" />
      <stop
         id="stop4570"
         offset="0.53767556"
         style="stop-color:#2fafba;stop-opacity:0.96470588;" />
      <stop
         style="stop-color:#3b8eea;stop-opacity:0.92941177"
         offset="1"
         id="stop4574" />
    </linearGradient>
  </defs>
  <sodipodi:namedview
     pagecolor="#ffffff"
     bordercolor="#666666"
     borderopacity="1"
     objecttolerance="10"
     gridtolerance="10"
     guidetolerance="10"
     inkscape:pageopacity="0"
     inkscape:pageshadow="2"
     inkscape:window-width="1920"
     inkscape:window-height="1053"
     id="namedview1189"
     showgrid="false"
     inkscape:zoom="4.4003302"
     inkscape:cx="121.75223"
     inkscape:cy="43.233968"
     inkscape:window-x="0"
     inkscape:window-y="27"
     inkscape:window-maximized="1"
     inkscape:current-layer="layer2"
     showguides="false"
     fit-margin-top="0"
     fit-margin-left="0"
     fit-margin-right="0"
     fit-margin-bottom="0" />
  <g
     inkscape:groupmode="layer"
     id="layer2"
     inkscape:label="Layer 2"
     style="display:inline"
     transform="translate(0,4.7926171)">
    <path
       style="fill:#000000;fill-opacity:1;stroke-width:1"
       inkscape:connector-curvature="0"
       id="path1181"
       d="m 208.84918,-66.486961 a 110.44,110.44 0 0 1 41.482,150.579992 110.44,110.44 0 0 1 -150.579997,41.482999 110.44,110.44 0 0 1 -41.485,-150.580001 110.44,110.44 0 0 1 150.579997,-41.48599 l -54.545,96.031993 z" />
    <g
       transform="translate(-268.71082,-559.55697)"
       id="g1179">
      <g
         transform="translate(-64,537.55)"
         font-size="160px"
         letter-spacing="0px"
         word-spacing="0px"
         id="g1177"
         style="font-size:160px;letter-spacing:0px;word-spacing:0px;stroke-width:4">
        <g
           aria-label="MUSIC.fr"
           id="g1159">
          <path
             d="m 652.29,116.47 h 9.3334 V 81.675 l 13.664,26.805 h 7.392 l 13.888,-27.851 v 35.84 h 9.3334 V 64.65 h -9.3334 l -17.173,33.6 -17.621,-33.6 h -9.4827 z"
             id="path1143"
             inkscape:connector-curvature="0"
             style="color:#000000" />
          <path
             d="m 738.28,117.22 c 13.141,0 21.728,-8.2134 21.728,-20.683 V 64.654 h -9.4827 v 33.003 c 0,7.0187 -4.1067,11.2 -11.051,11.2 -7.7654,0 -12.171,-4.704 -12.171,-12.544 V 64.654 h -9.632 v 32.405 c 0,12.395 7.9147,20.16 20.608,20.16 z"
             id="path1145"
             inkscape:connector-curvature="0"
             style="color:#000000" />
          <path
             d="m 786.06,117.22 c 12.693,0 20.235,-6.272 20.235,-15.979 0,-18.741 -27.253,-12.245 -27.253,-22.699 0,-3.9574 3.6587,-6.1974 10.08,-6.1974 4.3307,0 9.0347,0.82134 12.693,2.24 l 2.7627,-7.616 c -4.4054,-1.9413 -9.7814,-3.0613 -14.859,-3.0613 -12.395,0 -20.683,6.3467 -20.683,16.128 0,17.696 27.179,11.872 27.179,22.4 0,3.808 -3.2854,6.1227 -9.7067,6.1227 -4.704,0 -10.453,-1.0453 -15.605,-3.2107 l -2.688,7.7654 c 5.5254,2.5387 11.872,4.1067 17.845,4.1067 z"
             id="path1147"
             inkscape:connector-curvature="0"
             style="color:#000000" />
          <path
             d="m 815.47,116.47 h 9.7814 V 64.651 H 815.47 Z"
             id="path1149"
             inkscape:connector-curvature="0"
             style="color:#000000" />
          <path
             d="m 860.93,117.22 c 5.3014,0 11.2,-1.344 15.605,-3.5094 l -2.1653,-6.944 c -3.36,1.2693 -7.5414,2.016 -11.125,2.016 -11.424,0 -18.517,-7.4667 -18.517,-19.115 0,-10.976 6.4214,-17.248 17.323,-17.248 4.1814,0 8.8854,0.82134 12.245,2.1653 l 2.688,-7.4667 c -4.4054,-2.0907 -9.4827,-3.2107 -14.635,-3.2107 -16.427,0 -27.552,10.827 -27.552,27.104 0,15.68 10.528,26.208 26.133,26.208 z"
             id="path1151"
             inkscape:connector-curvature="0"
             style="color:#000000" />
          <path
             d="m 889.65,117.22 c 3.808,0 6.3467,-2.7627 6.3467,-6.3467 0,-3.808 -2.5387,-6.5707 -6.3467,-6.5707 -3.8827,0 -6.4214,2.7627 -6.4214,6.5707 0,3.584 2.5387,6.3467 6.4214,6.3467 z"
             id="path1153"
             inkscape:connector-curvature="0"
             style="color:#000000" />
          <path
             d="m 906.85,116.47 h 9.184 V 87.798 h 10.453 v -7.616 h -10.453 v -5.7494 c 0,-3.8827 2.0907,-5.9734 6.048,-5.9734 1.8667,0 4.1814,0.37334 5.5254,1.12 l 1.9413,-6.8694 c -2.3147,-1.344 -5.152,-2.1653 -8.2134,-2.1653 -8.6614,0 -14.485,5.8987 -14.485,14.709 v 4.928 h -5.6 v 7.616 h 5.6 z"
             id="path1155"
             inkscape:connector-curvature="0"
             style="color:#000000" />
          <path
             d="m 932.11,116.47 h 9.4827 V 92.502 c 2.1654,-2.6133 5.2267,-4.1067 8.5867,-4.1067 1.7173,0 3.5094,0.37334 4.928,1.0453 l 2.1653,-8.3627 c -1.6427,-0.82134 -3.6587,-1.2693 -5.6,-1.2693 -4.3307,0 -8.3627,2.1653 -11.125,5.7494 l -0.896,-5.376 h -7.5414 z"
             id="path1157"
             inkscape:connector-curvature="0"
             style="color:#000000" />
        </g>
        <g
           aria-label="MASSIVE"
           id="g1175">
          <path
             d="m 645.84,38.438 h 9.3334 V 3.643 l 13.664,26.805 h 7.392 l 13.888,-27.851 v 35.84 h 9.3334 v -51.819 h -9.3334 l -17.173,33.6 -17.621,-33.6 h -9.4827 z"
             id="path1161"
             inkscape:connector-curvature="0"
             style="color:#000000" />
          <path
             d="m 707.04,38.438 h 10.229 l 4.256,-12.992 h 19.861 l 4.256,12.992 h 10.677 l -17.995,-51.819 h -12.32 z m 17.323,-21.579 7.168,-21.952 7.0934,21.952 z"
             id="path1163"
             inkscape:connector-curvature="0"
             style="color:#000000" />
          <path
             d="m 778.3,39.185 c 12.693,0 20.235,-6.272 20.235,-15.979 0,-18.741 -27.253,-12.245 -27.253,-22.699 0,-3.9574 3.6587,-6.1974 10.08,-6.1974 4.3307,0 9.0347,0.82134 12.693,2.24 l 2.7627,-7.616 c -4.4054,-1.9413 -9.7814,-3.0613 -14.859,-3.0613 -12.395,0 -20.683,6.3467 -20.683,16.128 0,17.696 27.179,11.872 27.179,22.4 0,3.808 -3.2854,6.1227 -9.7067,6.1227 -4.704,0 -10.453,-1.0453 -15.605,-3.2107 l -2.688,7.7654 c 5.5254,2.5387 11.872,4.1067 17.845,4.1067 z"
             id="path1165"
             inkscape:connector-curvature="0"
             style="color:#000000" />
          <path
             d="m 822.05,39.185 c 12.693,0 20.235,-6.272 20.235,-15.979 0,-18.741 -27.253,-12.245 -27.253,-22.699 0,-3.9574 3.6587,-6.1974 10.08,-6.1974 4.3307,0 9.0347,0.82134 12.693,2.24 l 2.7627,-7.616 c -4.4054,-1.9413 -9.7814,-3.0613 -14.859,-3.0613 -12.395,0 -20.683,6.3467 -20.683,16.128 0,17.696 27.179,11.872 27.179,22.4 0,3.808 -3.2854,6.1227 -9.7067,6.1227 -4.704,0 -10.453,-1.0453 -15.605,-3.2107 l -2.688,7.7654 c 5.5254,2.5387 11.872,4.1067 17.845,4.1067 z"
             id="path1167"
             inkscape:connector-curvature="0"
             style="color:#000000" />
          <path
             d="m 851.47,38.438 h 9.7814 V -13.381 H 851.47 Z"
             id="path1169"
             inkscape:connector-curvature="0"
             style="color:#000000" />
          <path
             d="m 887.07,38.438 h 10.005 l 18.667,-51.819 h -9.856 l -13.365,40.395 -12.843,-40.395 h -11.2 z"
             id="path1171"
             inkscape:connector-curvature="0"
             style="color:#000000" />
          <path
             d="m 922.93,38.438 h 34.944 v -8.4374 h -25.312 v -13.888 h 23.221 V 7.6752 h -23.221 v -12.619 h 25.312 v -8.4374 H 922.93 Z"
             id="path1173"
             inkscape:connector-curvature="0"
             style="color:#000000" />
        </g>
      </g>
    </g>
  </g>
  <g
     inkscape:groupmode="layer"
     id="layer1"
     inkscape:label="Layer 1"
     style="display:inline"
     transform="translate(0,4.7926171)">
    <path
       style="display:inline;fill:url(#linearGradient1414);fill-opacity:1;stroke-width:0.3974714"
       inkscape:connector-curvature="0"
       id="path903"
       d="M 153.28569,98.229641 V 86.625884 h -12.30642 l 0.32575,-39.820357 1.33183,-2.326772 c 1.88526,-3.294931 3.65166,-4.41898 7.36252,-4.684755 4.12303,-0.29503 5.99109,0.675061 7.62613,3.964288 l 1.25268,2.519697 0.15675,31.777654 0.15676,31.777661 h -5.90418 z M 98.52599,88.911498 C 95.77633,86.779707 89.36178,79.280457 85.97178,74.234259 l -3.06367,-4.560423 0.17655,-11.697262 c 0.15831,-10.432121 0.29224,-11.924901 1.24203,-13.800869 1.55512,-3.070434 3.99838,-4.489885 7.72827,-4.489885 3.38742,0 5.26918,1.049016 6.65915,3.710772 1.38359,2.649857 1.90003,11.359481 1.74158,29.370501 l -0.15372,17.521361 z m 107.12727,-2.67754 -4.87891,-0.173634 -0.23743,-20.945951 c -0.21007,-18.622216 -0.35623,-21.472165 -1.31966,-25.692512 -2.21099,-9.685187 -5.1684,-15.355456 -10.59086,-20.305621 -6.06493,-5.536718 -12.37796,-7.823303 -22.8874,-8.289531 -8.0785,-0.359388 -12.73245,0.569432 -19.38049,3.866423 -3.38909,1.68037 -5.9325,3.464181 -8.95721,6.282564 l -4.22395,3.935628 -2.18177,-2.800899 c -5.601,-7.190485 -13.29229,-10.677249 -24.85882,-11.269629 -9.72221,-0.497798 -15.33097,1.772035 -23.51465,9.516785 l -4.93448,4.670063 -0.56165,-1.50614 C 76.817,22.693461 75.9494,20.402503 75.19779,18.430379 73.56459,14.145803 73.69853,12.561837 76.38046,4.455156 83.03809,-15.6749 98.03039,-32.85411 117.30723,-42.4435 c 22.34369,-11.1152 49.94106,-11.12406 72.45691,-0.0364 4.17952,2.06015 12.73747,7.39301 13.29227,8.28334 0.15528,0.2489 -0.85536,1.18257 -2.24524,2.07447 -2.82743,1.8149 -6.52109,5.05665 -6.52109,5.72333 0,0.23919 1.77932,2.18631 3.95409,4.32586 l 3.95394,3.8901 2.51296,-2.19091 c 4.348,-3.79067 8.97548,-4.21756 11.64598,-1.07452 1.61449,1.9005 1.71434,3.35953 0.36839,5.38143 -0.95127,1.42916 -2.42682,2.61222 -9.6598,7.744872 -4.81834,3.41901 -9.11337,7.688291 -11.65816,11.588833 l -2.21677,3.397039 0.15224,5.29741 0.15219,5.29777 40.47075,0.526933 0.34095,3.164536 c 2.02072,18.721895 -2.87402,38.209792 -13.51178,53.797392 -2.58984,3.794909 -9.4368,11.911918 -9.91809,11.757475 -0.18867,-0.06072 -2.53733,-0.186993 -5.22063,-0.28287 z m 3.51862,-80.250082 c 0.83253,-1.540619 5.09992,-5.086389 10.67946,-8.872923 2.78223,-1.888227 5.31819,-3.534846 5.63524,-3.658686 0.4825,-0.189394 3.94982,6.286444 3.94982,7.37759 0,0.194273 -1.79713,0.354548 -3.99382,0.354548 h -3.99381 v 5.801624 h -6.40876 c -6.12887,0 -6.38518,-0.04856 -5.86798,-1.000449 z"
       inkscape:export-filename="/home/ricardo/massivemusic2/front/public/newlogo.png"
       inkscape:export-xdpi="95.999611"
       inkscape:export-ydpi="95.999611" />
  </g>
</svg>
