<?xml version="1.0" encoding="UTF-8" standalone="no"?>
<svg
   xmlns:dc="http://purl.org/dc/elements/1.1/"
   xmlns:cc="http://creativecommons.org/ns#"
   xmlns:rdf="http://www.w3.org/1999/02/22-rdf-syntax-ns#"
   xmlns:svg="http://www.w3.org/2000/svg"
   xmlns="http://www.w3.org/2000/svg"
   xmlns:xlink="http://www.w3.org/1999/xlink"
   xmlns:sodipodi="http://sodipodi.sourceforge.net/DTD/sodipodi-0.dtd"
   xmlns:inkscape="http://www.inkscape.org/namespaces/inkscape"
   width="145.33"
   height="55.22"
   version="1.1"
   viewBox="0 0 581.3 55.22"
   id="svg1179"
   sodipodi:docname="logo-mail.svg"
   inkscape:version="0.92.4 (5da689c313, 2019-01-14)">
  <metadata
     id="metadata1185">
    <rdf:RDF>
      <cc:Work
         rdf:about="">
        <dc:format>image/svg+xml</dc:format>
        <dc:type
           rdf:resource="http://purl.org/dc/dcmitype/StillImage" />
      </cc:Work>
    </rdf:RDF>
  </metadata>
  <defs
     id="defs1183">
    <linearGradient
       inkscape:collect="always"
       xlink:href="#linearGradient1412"
       id="linearGradient1414"
       x1="2.7403307"
       y1="252.96576"
       x2="46.000008"
       y2="293.99997"
       gradientUnits="userSpaceOnUse"
       spreadMethod="pad"
       gradientTransform="matrix(3.2124088,0,0,3.2124088,30.508392,-846.54637)" />
    <linearGradient
       inkscape:collect="always"
       id="linearGradient1412">
      <stop
         style="stop-color:#23d18b;stop-opacity:1"
         offset="0"
         id="stop1408" />
      <stop
         id="stop4570"
         offset="0.53767556"
         style="stop-color:#2fafba;stop-opacity:0.96470588;" />
      <stop
         style="stop-color:#3b8eea;stop-opacity:0.92941177"
         offset="1"
         id="stop4574" />
    </linearGradient>
  </defs>
  <sodipodi:namedview
     pagecolor="#ffffff"
     bordercolor="#666666"
     borderopacity="1"
     objecttolerance="10"
     gridtolerance="10"
     guidetolerance="10"
     inkscape:pageopacity="0"
     inkscape:pageshadow="2"
     inkscape:window-width="1920"
     inkscape:window-height="1053"
     id="namedview1181"
     showgrid="false"
     inkscape:zoom="4.5207458"
     inkscape:cx="72.665001"
     inkscape:cy="27.610001"
     inkscape:window-x="0"
     inkscape:window-y="27"
     inkscape:window-maximized="1"
     inkscape:current-layer="svg1179" />
  <path
     style="display:inline;fill:url(#linearGradient1414);fill-opacity:1;stroke-width:0.3974714"
     inkscape:connector-curvature="0"
     id="path903"
     d="M 109.66114,95.934404 V 84.330648 H 97.354717 l 0.325733,-39.820357 1.33183,-2.326774 c 1.88526,-3.294929 3.65166,-4.41898 7.36252,-4.684755 4.12304,-0.295028 5.9911,0.675062 7.62614,3.964286 l 1.25267,2.519701 0.15677,31.777652 0.15676,31.777659 h -5.90418 z M 54.901441,86.616259 C 52.151781,84.484471 45.73723,76.985222 42.347226,71.939021 l -3.063667,-4.560424 0.176554,-11.697259 c 0.158308,-10.432122 0.292233,-11.924903 1.24203,-13.80087 1.55512,-3.070436 3.998381,-4.489887 7.728269,-4.489887 3.387413,0 5.269179,1.049018 6.659152,3.710772 1.383584,2.649859 1.90003,11.359481 1.741578,29.370502 L 56.677419,87.993217 Z M 162.02871,83.93872 157.1498,83.765084 156.91237,62.819131 c -0.21006,-18.622217 -0.35621,-21.472167 -1.31966,-25.692513 -2.21099,-9.685185 -5.1684,-15.355456 -10.59086,-20.305621 -6.06493,-5.536715 -12.37796,-7.8233009 -22.8874,-8.2895306 -8.0785,-0.3593853 -12.73245,0.5694311 -19.38049,3.8664226 -3.389087,1.68037 -5.932503,3.464182 -8.957211,6.282563 L 89.5528,22.616083 87.371026,19.815184 C 81.770026,12.624701 74.07874,9.137937 62.512208,8.5455589 52.790001,8.0477606 47.181243,10.317594 38.997562,18.062342 l -4.934481,4.670065 -0.561652,-1.50614 C 33.192447,20.398223 32.324852,18.107265 31.573243,16.135142 29.940038,11.850565 30.073982,10.2666 32.755907,2.1599169 39.413536,-17.970139 54.405837,-35.149352 73.682678,-44.738746 c 22.343694,-11.115197 49.941062,-11.124055 72.456912,-0.03638 4.17952,2.060156 12.73747,7.393019 13.29227,8.283344 0.15528,0.248898 -0.85536,1.182569 -2.24524,2.074477 -2.82743,1.814897 -6.52109,5.056642 -6.52109,5.723328 0,0.239188 1.77932,2.186304 3.95409,4.325858 l 3.95394,3.890102 2.51296,-2.190916 c 4.348,-3.790665 8.97548,-4.217552 11.64598,-1.074513 1.61449,1.900492 1.71434,3.359523 0.36837,5.38143 -0.95127,1.429161 -2.42682,2.612218 -9.6598,7.74487 -4.81834,3.4190109 -9.11337,7.6882893 -11.65816,11.58883194 l -2.21677,3.39703846 0.15223,5.2974098 0.1522,5.2977728 40.47075,0.526934 0.34094,3.164532 c 2.02072,18.721899 -2.87402,38.209797 -13.51178,53.797396 -2.58984,3.794909 -9.4368,11.911917 -9.91809,11.757475 -0.18867,-0.06072 -2.53733,-0.186992 -5.22063,-0.282878 z m 3.51862,-80.2500815 c 0.83253,-1.5406199 5.09992,-5.08639 10.67946,-8.8729243 2.78223,-1.8882281 5.31819,-3.5348451 5.63524,-3.6586861 0.4825,-0.1894037 3.94982,6.2864458 3.94982,7.3775921 0,0.1942546 -1.79713,0.354528 -3.99382,0.354528 h -3.99381 v 5.8016429 h -6.40876 c -6.12887,0 -6.38518,-0.048573 -5.86798,-1.00045 z"
     inkscape:export-filename="/home/ricardo/massivemusic2/front/public/newlogo.png"
     inkscape:export-xdpi="95.999611"
     inkscape:export-ydpi="95.999611" />
  <g
     transform="translate(-312.57,-561.48)"
     id="g1171">
    <g
       transform="translate(-64,537.55)"
       font-size="160px"
       letter-spacing="0px"
       stroke-width="4"
       word-spacing="0px"
       id="g1169">
      <g
         aria-label="MUSIC.fr"
         id="g1151">
        <path
           d="m652.29 116.47h9.3334v-34.795l13.664 26.805h7.392l13.888-27.851v35.84h9.3334v-51.819h-9.3334l-17.173 33.6-17.621-33.6h-9.4827z"
           color="#000000"
           id="path1135" />
        <path
           d="m738.28 117.22c13.141 0 21.728-8.2134 21.728-20.683v-31.883h-9.4827v33.003c0 7.0187-4.1067 11.2-11.051 11.2-7.7654 0-12.171-4.704-12.171-12.544v-31.659h-9.632v32.405c0 12.395 7.9147 20.16 20.608 20.16z"
           color="#000000"
           id="path1137" />
        <path
           d="m786.06 117.22c12.693 0 20.235-6.272 20.235-15.979 0-18.741-27.253-12.245-27.253-22.699 0-3.9574 3.6587-6.1974 10.08-6.1974 4.3307 0 9.0347 0.82134 12.693 2.24l2.7627-7.616c-4.4054-1.9413-9.7814-3.0613-14.859-3.0613-12.395 0-20.683 6.3467-20.683 16.128 0 17.696 27.179 11.872 27.179 22.4 0 3.808-3.2854 6.1227-9.7067 6.1227-4.704 0-10.453-1.0453-15.605-3.2107l-2.688 7.7654c5.5254 2.5387 11.872 4.1067 17.845 4.1067z"
           color="#000000"
           id="path1139" />
        <path
           d="m815.47 116.47h9.7814v-51.819h-9.7814z"
           color="#000000"
           id="path1141" />
        <path
           d="m860.93 117.22c5.3014 0 11.2-1.344 15.605-3.5094l-2.1653-6.944c-3.36 1.2693-7.5414 2.016-11.125 2.016-11.424 0-18.517-7.4667-18.517-19.115 0-10.976 6.4214-17.248 17.323-17.248 4.1814 0 8.8854 0.82134 12.245 2.1653l2.688-7.4667c-4.4054-2.0907-9.4827-3.2107-14.635-3.2107-16.427 0-27.552 10.827-27.552 27.104 0 15.68 10.528 26.208 26.133 26.208z"
           color="#000000"
           id="path1143" />
        <path
           d="m889.65 117.22c3.808 0 6.3467-2.7627 6.3467-6.3467 0-3.808-2.5387-6.5707-6.3467-6.5707-3.8827 0-6.4214 2.7627-6.4214 6.5707 0 3.584 2.5387 6.3467 6.4214 6.3467z"
           color="#000000"
           id="path1145" />
        <path
           d="m906.85 116.47h9.184v-28.672h10.453v-7.616h-10.453v-5.7494c0-3.8827 2.0907-5.9734 6.048-5.9734 1.8667 0 4.1814 0.37334 5.5254 1.12l1.9413-6.8694c-2.3147-1.344-5.152-2.1653-8.2134-2.1653-8.6614 0-14.485 5.8987-14.485 14.709v4.928h-5.6v7.616h5.6z"
           color="#000000"
           id="path1147" />
        <path
           d="m932.11 116.47h9.4827v-23.968c2.1654-2.6133 5.2267-4.1067 8.5867-4.1067 1.7173 0 3.5094 0.37334 4.928 1.0453l2.1653-8.3627c-1.6427-0.82134-3.6587-1.2693-5.6-1.2693-4.3307 0-8.3627 2.1653-11.125 5.7494l-0.896-5.376h-7.5414z"
           color="#000000"
           id="path1149" />
      </g>
      <g
         aria-label="MASSIVE"
         id="g1167">
        <path
           d="m645.84 38.438h9.3334v-34.795l13.664 26.805h7.392l13.888-27.851v35.84h9.3334v-51.819h-9.3334l-17.173 33.6-17.621-33.6h-9.4827z"
           color="#000000"
           id="path1153" />
        <path
           d="m707.04 38.438h10.229l4.256-12.992h19.861l4.256 12.992h10.677l-17.995-51.819h-12.32zm17.323-21.579 7.168-21.952 7.0934 21.952z"
           color="#000000"
           id="path1155" />
        <path
           d="m778.3 39.185c12.693 0 20.235-6.272 20.235-15.979 0-18.741-27.253-12.245-27.253-22.699 0-3.9574 3.6587-6.1974 10.08-6.1974 4.3307 0 9.0347 0.82134 12.693 2.24l2.7627-7.616c-4.4054-1.9413-9.7814-3.0613-14.859-3.0613-12.395 0-20.683 6.3467-20.683 16.128 0 17.696 27.179 11.872 27.179 22.4 0 3.808-3.2854 6.1227-9.7067 6.1227-4.704 0-10.453-1.0453-15.605-3.2107l-2.688 7.7654c5.5254 2.5387 11.872 4.1067 17.845 4.1067z"
           color="#000000"
           id="path1157" />
        <path
           d="m822.05 39.185c12.693 0 20.235-6.272 20.235-15.979 0-18.741-27.253-12.245-27.253-22.699 0-3.9574 3.6587-6.1974 10.08-6.1974 4.3307 0 9.0347 0.82134 12.693 2.24l2.7627-7.616c-4.4054-1.9413-9.7814-3.0613-14.859-3.0613-12.395 0-20.683 6.3467-20.683 16.128 0 17.696 27.179 11.872 27.179 22.4 0 3.808-3.2854 6.1227-9.7067 6.1227-4.704 0-10.453-1.0453-15.605-3.2107l-2.688 7.7654c5.5254 2.5387 11.872 4.1067 17.845 4.1067z"
           color="#000000"
           id="path1159" />
        <path
           d="m851.47 38.438h9.7814v-51.819h-9.7814z"
           color="#000000"
           id="path1161" />
        <path
           d="m887.07 38.438h10.005l18.667-51.819h-9.856l-13.365 40.395-12.843-40.395h-11.2z"
           color="#000000"
           id="path1163" />
        <path
           d="m922.93 38.438h34.944v-8.4374h-25.312v-13.888h23.221v-8.4374h-23.221v-12.619h25.312v-8.4374h-34.944z"
           color="#000000"
           id="path1165" />
      </g>
    </g>
  </g>
</svg>
