<svg width="145.33" height="55.22" version="1.1" viewBox="0 0 581.3 55.22" xmlns="http://www.w3.org/2000/svg">
  <g transform="translate(-312.57,-561.48)">
    <g transform="translate(-64,537.55)" font-size="160px" letter-spacing="0px" stroke-width="4" word-spacing="0px">
      <g aria-label="MUSIC.fr">
        <path d="m652.29 116.47h9.3334v-34.795l13.664 26.805h7.392l13.888-27.851v35.84h9.3334v-51.819h-9.3334l-17.173 33.6-17.621-33.6h-9.4827z" color="#000000"/>
        <path d="m738.28 117.22c13.141 0 21.728-8.2134 21.728-20.683v-31.883h-9.4827v33.003c0 7.0187-4.1067 11.2-11.051 11.2-7.7654 0-12.171-4.704-12.171-12.544v-31.659h-9.632v32.405c0 12.395 7.9147 20.16 20.608 20.16z" color="#000000"/>
        <path d="m786.06 117.22c12.693 0 20.235-6.272 20.235-15.979 0-18.741-27.253-12.245-27.253-22.699 0-3.9574 3.6587-6.1974 10.08-6.1974 4.3307 0 9.0347 0.82134 12.693 2.24l2.7627-7.616c-4.4054-1.9413-9.7814-3.0613-14.859-3.0613-12.395 0-20.683 6.3467-20.683 16.128 0 17.696 27.179 11.872 27.179 22.4 0 3.808-3.2854 6.1227-9.7067 6.1227-4.704 0-10.453-1.0453-15.605-3.2107l-2.688 7.7654c5.5254 2.5387 11.872 4.1067 17.845 4.1067z" color="#000000"/>
        <path d="m815.47 116.47h9.7814v-51.819h-9.7814z" color="#000000"/>
        <path d="m860.93 117.22c5.3014 0 11.2-1.344 15.605-3.5094l-2.1653-6.944c-3.36 1.2693-7.5414 2.016-11.125 2.016-11.424 0-18.517-7.4667-18.517-19.115 0-10.976 6.4214-17.248 17.323-17.248 4.1814 0 8.8854 0.82134 12.245 2.1653l2.688-7.4667c-4.4054-2.0907-9.4827-3.2107-14.635-3.2107-16.427 0-27.552 10.827-27.552 27.104 0 15.68 10.528 26.208 26.133 26.208z" color="#000000"/>
        <path d="m889.65 117.22c3.808 0 6.3467-2.7627 6.3467-6.3467 0-3.808-2.5387-6.5707-6.3467-6.5707-3.8827 0-6.4214 2.7627-6.4214 6.5707 0 3.584 2.5387 6.3467 6.4214 6.3467z" color="#000000"/>
        <path d="m906.85 116.47h9.184v-28.672h10.453v-7.616h-10.453v-5.7494c0-3.8827 2.0907-5.9734 6.048-5.9734 1.8667 0 4.1814 0.37334 5.5254 1.12l1.9413-6.8694c-2.3147-1.344-5.152-2.1653-8.2134-2.1653-8.6614 0-14.485 5.8987-14.485 14.709v4.928h-5.6v7.616h5.6z" color="#000000"/>
        <path d="m932.11 116.47h9.4827v-23.968c2.1654-2.6133 5.2267-4.1067 8.5867-4.1067 1.7173 0 3.5094 0.37334 4.928 1.0453l2.1653-8.3627c-1.6427-0.82134-3.6587-1.2693-5.6-1.2693-4.3307 0-8.3627 2.1653-11.125 5.7494l-0.896-5.376h-7.5414z" color="#000000"/>
      </g>
      <g aria-label="MASSIVE">
        <path d="m645.84 38.438h9.3334v-34.795l13.664 26.805h7.392l13.888-27.851v35.84h9.3334v-51.819h-9.3334l-17.173 33.6-17.621-33.6h-9.4827z" color="#000000"/>
        <path d="m707.04 38.438h10.229l4.256-12.992h19.861l4.256 12.992h10.677l-17.995-51.819h-12.32zm17.323-21.579 7.168-21.952 7.0934 21.952z" color="#000000"/>
        <path d="m778.3 39.185c12.693 0 20.235-6.272 20.235-15.979 0-18.741-27.253-12.245-27.253-22.699 0-3.9574 3.6587-6.1974 10.08-6.1974 4.3307 0 9.0347 0.82134 12.693 2.24l2.7627-7.616c-4.4054-1.9413-9.7814-3.0613-14.859-3.0613-12.395 0-20.683 6.3467-20.683 16.128 0 17.696 27.179 11.872 27.179 22.4 0 3.808-3.2854 6.1227-9.7067 6.1227-4.704 0-10.453-1.0453-15.605-3.2107l-2.688 7.7654c5.5254 2.5387 11.872 4.1067 17.845 4.1067z" color="#000000"/>
        <path d="m822.05 39.185c12.693 0 20.235-6.272 20.235-15.979 0-18.741-27.253-12.245-27.253-22.699 0-3.9574 3.6587-6.1974 10.08-6.1974 4.3307 0 9.0347 0.82134 12.693 2.24l2.7627-7.616c-4.4054-1.9413-9.7814-3.0613-14.859-3.0613-12.395 0-20.683 6.3467-20.683 16.128 0 17.696 27.179 11.872 27.179 22.4 0 3.808-3.2854 6.1227-9.7067 6.1227-4.704 0-10.453-1.0453-15.605-3.2107l-2.688 7.7654c5.5254 2.5387 11.872 4.1067 17.845 4.1067z" color="#000000"/>
        <path d="m851.47 38.438h9.7814v-51.819h-9.7814z" color="#000000"/>
        <path d="m887.07 38.438h10.005l18.667-51.819h-9.856l-13.365 40.395-12.843-40.395h-11.2z" color="#000000"/>
        <path d="m922.93 38.438h34.944v-8.4374h-25.312v-13.888h23.221v-8.4374h-23.221v-12.619h25.312v-8.4374h-34.944z" color="#000000"/>
      </g>
    </g>
  </g>
  <g transform="translate(-312.57,-561.48)">
    <path d="m477.56 493.07a110.44 110.44 0 0 1 41.482 150.58 110.44 110.44 0 0 1-150.58 41.483 110.44 110.44 0 0 1-41.485-150.58 110.44 110.44 0 0 1 150.58-41.486l-54.545 96.032z" fill="#fff"/>
    <path d="m421.86 657.99v-11.636h-12.223l0.3228-39.931 1.3222-2.3332c1.8725-3.3041 3.6269-4.4312 7.3125-4.6978 4.0951-0.2962 5.9505 0.67762 7.5744 3.9754l1.2442 2.5266 0.15536 31.866 0.1554 31.866h-5.8641zm-54.388-9.344c-2.731-2.1377-9.102-9.6578-12.469-14.718l-3.0429-4.573 0.17576-11.73c0.15675-10.461 0.29016-11.958 1.2335-13.839 1.5446-3.0791 3.9713-4.5025 7.6758-4.5025 3.3645 0 5.2335 1.0515 6.614 3.7212 1.3741 2.6572 1.8871 11.391 1.7298 29.452l-0.15297 17.57zm106.4-2.685-4.8458-0.17392-0.23504-21.004c-0.20896-18.674-0.35444-21.532-1.3113-25.764-2.196-9.7122-5.1334-15.398-10.519-20.362-6.0238-5.5522-12.294-7.8451-22.732-8.3126-8.0237-0.35936-12.646 0.57172-19.249 3.8771-3.3661 1.6851-5.8922 3.4739-8.8963 6.3l-4.1954 3.9467-2.1669-2.8087c-5.5629-7.2106-13.202-10.707-24.69-11.301-9.6562-0.49918-15.227 1.7771-23.355 9.5433l-4.901 4.6828-0.55747-1.5095c-0.30661-0.8302-1.1684-3.1277-1.9151-5.1054-1.6221-4.2964-1.489-5.8848 1.1739-14.014 6.6125-20.186 21.503-37.413 40.649-47.029 22.192-11.146 49.602-11.155 71.965-0.0259 4.1511 2.0659 12.651 7.4135 13.202 8.3064 0.15408 0.24932-0.84942 1.1854-2.23 2.0801-2.8082 1.82-6.4768 5.0708-6.4768 5.7393 0 0.24028 1.7672 2.1923 3.9272 4.3378l3.9272 3.9009 2.4958-2.1969c4.3185-3.8013 8.9146-4.2294 11.567-1.0773 1.6035 1.9056 1.7027 3.3688 0.36592 5.3963-0.94513 1.4334-2.4104 2.6195-9.5943 7.7664-4.7855 3.4285-9.0514 7.7097-11.579 11.621l-2.2017 3.4064 0.14952 5.3123 0.14952 5.3124 40.196 0.52888 0.33924 3.1733c2.0071 18.774-2.8544 38.316-13.42 53.947-2.5722 3.8054-9.3728 11.945-9.8508 11.79-0.18668-0.0604-2.5201-0.188-5.1852-0.28368zm3.4947-80.473c0.82681-1.5449 5.0654-5.1005 10.607-8.8976 2.7634-1.8936 5.282-3.5446 5.5969-3.6689 0.47983-0.18936 3.9231 6.3038 3.9231 7.398 0 0.19496-1.785 0.35448-3.9667 0.35448h-3.9667v5.8178h-6.3653c-6.0872 0-6.3418-0.0438-5.8281-1.0038z" stroke-width=".39667"/>
  </g>
</svg>
