<?xml version="1.0" encoding="UTF-8" standalone="no"?>
<svg
   xmlns:dc="http://purl.org/dc/elements/1.1/"
   xmlns:cc="http://creativecommons.org/ns#"
   xmlns:rdf="http://www.w3.org/1999/02/22-rdf-syntax-ns#"
   xmlns:svg="http://www.w3.org/2000/svg"
   xmlns="http://www.w3.org/2000/svg"
   xmlns:sodipodi="http://sodipodi.sourceforge.net/DTD/sodipodi-0.dtd"
   xmlns:inkscape="http://www.inkscape.org/namespaces/inkscape"
   width="168.715"
   height="70"
   version="1.1"
   viewBox="0 0 674.83676 69.999999"
   id="svg1187"
   sodipodi:docname="logo+title.svg"
   inkscape:version="0.92.4 (5da689c313, 2019-01-14)"
   inkscape:export-filename="/home/ricardo/logo.png"
   inkscape:export-xdpi="300"
   inkscape:export-ydpi="300">
  <metadata
     id="metadata1193">
    <rdf:RDF>
      <cc:Work
         rdf:about="">
        <dc:format>image/svg+xml</dc:format>
        <dc:type
           rdf:resource="http://purl.org/dc/dcmitype/StillImage" />
        <dc:title />
      </cc:Work>
    </rdf:RDF>
  </metadata>
  <defs
     id="defs1191" />
  <sodipodi:namedview
     pagecolor="#ffffff"
     bordercolor="#666666"
     borderopacity="1"
     objecttolerance="10"
     gridtolerance="10"
     guidetolerance="10"
     inkscape:pageopacity="0"
     inkscape:pageshadow="2"
     inkscape:window-width="1920"
     inkscape:window-height="1053"
     id="namedview1189"
     showgrid="false"
     inkscape:zoom="4.4003302"
     inkscape:cx="77.210115"
     inkscape:cy="43.233968"
     inkscape:window-x="0"
     inkscape:window-y="27"
     inkscape:window-maximized="1"
     inkscape:current-layer="layer1"
     showguides="false"
     fit-margin-top="0"
     fit-margin-left="0"
     fit-margin-right="0"
     fit-margin-bottom="0" />
  <g
     inkscape:groupmode="layer"
     id="layer1"
     inkscape:label="Layer 1"
     style="display:inline"
     transform="translate(0,4.7926171)">
    <path
       style="fill:#ffffff;fill-opacity:1;stroke:none;stroke-width:1.6126864"
       d="M 36.601562,0.72070312 C 23.448049,0.1182072 11.069402,6.9490291 4.5664062,18.398438 -4.9800769,35.205956 0.90572608,56.570083 17.712891,66.117188 c 7.180136,4.062842 15.564656,5.458763 23.673828,3.941406 h 85.962891 c 14.65337,2.719793 29.4218,-4.138069 36.79883,-17.087891 C 173.69625,36.162742 167.81028,14.797154 151.00195,5.25 L 134.99023,33.4375 151,5.25 C 145.1535,1.9301619 138.47452,0.36450221 131.76172,0.74023438 H 37.724609 c -0.158616,0.16556359 -0.856827,0.004888 -1.123047,-0.0195313 z"
       transform="matrix(3.9998623,0,0,3.9998623,0,-109.7878)"
       id="path1275"
       inkscape:connector-curvature="0"
       sodipodi:nodetypes="cccccccccccc" />
  </g>
  <g
     inkscape:groupmode="layer"
     id="layer2"
     inkscape:label="Layer 2"
     style="display:inline"
     transform="translate(0,4.7926171)">
    <g
       transform="translate(-268.71082,-559.55697)"
       id="g1179">
      <g
         transform="translate(-64,537.55)"
         font-size="160px"
         letter-spacing="0px"
         word-spacing="0px"
         id="g1177"
         style="font-size:160px;letter-spacing:0px;word-spacing:0px;stroke-width:4">
        <g
           aria-label="MUSIC.fr"
           id="g1159">
          <path
             d="m 652.29,116.47 h 9.3334 V 81.675 l 13.664,26.805 h 7.392 l 13.888,-27.851 v 35.84 h 9.3334 V 64.65 h -9.3334 l -17.173,33.6 -17.621,-33.6 h -9.4827 z"
             id="path1143"
             inkscape:connector-curvature="0"
             style="color:#000000" />
          <path
             d="m 738.28,117.22 c 13.141,0 21.728,-8.2134 21.728,-20.683 V 64.654 h -9.4827 v 33.003 c 0,7.0187 -4.1067,11.2 -11.051,11.2 -7.7654,0 -12.171,-4.704 -12.171,-12.544 V 64.654 h -9.632 v 32.405 c 0,12.395 7.9147,20.16 20.608,20.16 z"
             id="path1145"
             inkscape:connector-curvature="0"
             style="color:#000000" />
          <path
             d="m 786.06,117.22 c 12.693,0 20.235,-6.272 20.235,-15.979 0,-18.741 -27.253,-12.245 -27.253,-22.699 0,-3.9574 3.6587,-6.1974 10.08,-6.1974 4.3307,0 9.0347,0.82134 12.693,2.24 l 2.7627,-7.616 c -4.4054,-1.9413 -9.7814,-3.0613 -14.859,-3.0613 -12.395,0 -20.683,6.3467 -20.683,16.128 0,17.696 27.179,11.872 27.179,22.4 0,3.808 -3.2854,6.1227 -9.7067,6.1227 -4.704,0 -10.453,-1.0453 -15.605,-3.2107 l -2.688,7.7654 c 5.5254,2.5387 11.872,4.1067 17.845,4.1067 z"
             id="path1147"
             inkscape:connector-curvature="0"
             style="color:#000000" />
          <path
             d="m 815.47,116.47 h 9.7814 V 64.651 H 815.47 Z"
             id="path1149"
             inkscape:connector-curvature="0"
             style="color:#000000" />
          <path
             d="m 860.93,117.22 c 5.3014,0 11.2,-1.344 15.605,-3.5094 l -2.1653,-6.944 c -3.36,1.2693 -7.5414,2.016 -11.125,2.016 -11.424,0 -18.517,-7.4667 -18.517,-19.115 0,-10.976 6.4214,-17.248 17.323,-17.248 4.1814,0 8.8854,0.82134 12.245,2.1653 l 2.688,-7.4667 c -4.4054,-2.0907 -9.4827,-3.2107 -14.635,-3.2107 -16.427,0 -27.552,10.827 -27.552,27.104 0,15.68 10.528,26.208 26.133,26.208 z"
             id="path1151"
             inkscape:connector-curvature="0"
             style="color:#000000" />
          <path
             d="m 889.65,117.22 c 3.808,0 6.3467,-2.7627 6.3467,-6.3467 0,-3.808 -2.5387,-6.5707 -6.3467,-6.5707 -3.8827,0 -6.4214,2.7627 -6.4214,6.5707 0,3.584 2.5387,6.3467 6.4214,6.3467 z"
             id="path1153"
             inkscape:connector-curvature="0"
             style="color:#000000" />
          <path
             d="m 906.85,116.47 h 9.184 V 87.798 h 10.453 v -7.616 h -10.453 v -5.7494 c 0,-3.8827 2.0907,-5.9734 6.048,-5.9734 1.8667,0 4.1814,0.37334 5.5254,1.12 l 1.9413,-6.8694 c -2.3147,-1.344 -5.152,-2.1653 -8.2134,-2.1653 -8.6614,0 -14.485,5.8987 -14.485,14.709 v 4.928 h -5.6 v 7.616 h 5.6 z"
             id="path1155"
             inkscape:connector-curvature="0"
             style="color:#000000" />
          <path
             d="m 932.11,116.47 h 9.4827 V 92.502 c 2.1654,-2.6133 5.2267,-4.1067 8.5867,-4.1067 1.7173,0 3.5094,0.37334 4.928,1.0453 l 2.1653,-8.3627 c -1.6427,-0.82134 -3.6587,-1.2693 -5.6,-1.2693 -4.3307,0 -8.3627,2.1653 -11.125,5.7494 l -0.896,-5.376 h -7.5414 z"
             id="path1157"
             inkscape:connector-curvature="0"
             style="color:#000000" />
        </g>
        <g
           aria-label="MASSIVE"
           id="g1175">
          <path
             d="m 645.84,38.438 h 9.3334 V 3.643 l 13.664,26.805 h 7.392 l 13.888,-27.851 v 35.84 h 9.3334 v -51.819 h -9.3334 l -17.173,33.6 -17.621,-33.6 h -9.4827 z"
             id="path1161"
             inkscape:connector-curvature="0"
             style="color:#000000" />
          <path
             d="m 707.04,38.438 h 10.229 l 4.256,-12.992 h 19.861 l 4.256,12.992 h 10.677 l -17.995,-51.819 h -12.32 z m 17.323,-21.579 7.168,-21.952 7.0934,21.952 z"
             id="path1163"
             inkscape:connector-curvature="0"
             style="color:#000000" />
          <path
             d="m 778.3,39.185 c 12.693,0 20.235,-6.272 20.235,-15.979 0,-18.741 -27.253,-12.245 -27.253,-22.699 0,-3.9574 3.6587,-6.1974 10.08,-6.1974 4.3307,0 9.0347,0.82134 12.693,2.24 l 2.7627,-7.616 c -4.4054,-1.9413 -9.7814,-3.0613 -14.859,-3.0613 -12.395,0 -20.683,6.3467 -20.683,16.128 0,17.696 27.179,11.872 27.179,22.4 0,3.808 -3.2854,6.1227 -9.7067,6.1227 -4.704,0 -10.453,-1.0453 -15.605,-3.2107 l -2.688,7.7654 c 5.5254,2.5387 11.872,4.1067 17.845,4.1067 z"
             id="path1165"
             inkscape:connector-curvature="0"
             style="color:#000000" />
          <path
             d="m 822.05,39.185 c 12.693,0 20.235,-6.272 20.235,-15.979 0,-18.741 -27.253,-12.245 -27.253,-22.699 0,-3.9574 3.6587,-6.1974 10.08,-6.1974 4.3307,0 9.0347,0.82134 12.693,2.24 l 2.7627,-7.616 c -4.4054,-1.9413 -9.7814,-3.0613 -14.859,-3.0613 -12.395,0 -20.683,6.3467 -20.683,16.128 0,17.696 27.179,11.872 27.179,22.4 0,3.808 -3.2854,6.1227 -9.7067,6.1227 -4.704,0 -10.453,-1.0453 -15.605,-3.2107 l -2.688,7.7654 c 5.5254,2.5387 11.872,4.1067 17.845,4.1067 z"
             id="path1167"
             inkscape:connector-curvature="0"
             style="color:#000000" />
          <path
             d="m 851.47,38.438 h 9.7814 V -13.381 H 851.47 Z"
             id="path1169"
             inkscape:connector-curvature="0"
             style="color:#000000" />
          <path
             d="m 887.07,38.438 h 10.005 l 18.667,-51.819 h -9.856 l -13.365,40.395 -12.843,-40.395 h -11.2 z"
             id="path1171"
             inkscape:connector-curvature="0"
             style="color:#000000" />
          <path
             d="m 922.93,38.438 h 34.944 v -8.4374 h -25.312 v -13.888 h 23.221 V 7.6752 h -23.221 v -12.619 h 25.312 v -8.4374 H 922.93 Z"
             id="path1173"
             inkscape:connector-curvature="0"
             style="color:#000000" />
        </g>
      </g>
    </g>
    <path
       style="fill:#ececec;fill-opacity:1;stroke-width:1"
       inkscape:connector-curvature="0"
       id="path1181"
       d="m 208.84918,-66.486961 a 110.44,110.44 0 0 1 41.482,150.579992 110.44,110.44 0 0 1 -150.579997,41.482999 110.44,110.44 0 0 1 -41.485,-150.580001 110.44,110.44 0 0 1 150.579997,-41.48599 l -54.545,96.031993 z" />
    <path
       style="stroke-width:0.39667004"
       inkscape:connector-curvature="0"
       id="path1183"
       d="M 153.14918,98.433034 V 86.79703 h -12.223 l 0.32279,-39.930998 1.3222,-2.3332 c 1.8725,-3.304098 3.6269,-4.431199 7.3125,-4.697798 4.0951,-0.29619 5.9505,0.677621 7.5744,3.975399 l 1.2442,2.526601 0.15536,31.865996 0.15539,31.866 h -5.86408 z M 98.761173,89.089031 c -2.73099,-2.137698 -9.10199,-9.6578 -12.46899,-14.718002 l -3.0429,-4.572994 0.17575,-11.73 c 0.15675,-10.461001 0.29016,-11.958001 1.23351,-13.839 1.54459,-3.079102 3.97129,-4.502501 7.6758,-4.502501 3.3645,0 5.2335,1.051499 6.614,3.7212 1.374097,2.6572 1.887087,11.391 1.729797,29.451998 l -0.15296,17.569999 z m 106.400007,-2.685 -4.8458,-0.173914 -0.23503,-21.003997 c -0.20895,-18.673997 -0.35443,-21.531999 -1.3113,-25.763997 -2.196,-9.712202 -5.1334,-15.398002 -10.519,-20.361999 -6.0238,-5.552201 -12.294,-7.845103 -22.732,-8.312602 -8.0237,-0.359348 -12.646,0.57172 -19.249,3.877098 -3.3661,1.685102 -5.8922,3.473901 -8.8963,6.300004 l -4.1954,3.9467 -2.1669,-2.808704 c -5.56291,-7.210607 -13.20201,-10.707007 -24.69002,-11.301007 -9.656197,-0.499179 -15.226997,1.777103 -23.354997,9.5433 l -4.90099,4.682803 -0.55747,-1.5095 c -0.30661,-0.830204 -1.1684,-3.127701 -1.91511,-5.105401 -1.62209,-4.2964 -1.489,-5.884801 1.1739,-14.0140016 6.6125,-20.1859944 21.50301,-37.4130044 40.649007,-47.0289944 22.192,-11.146 49.602,-11.155 71.965,-0.0259 4.1511,2.0659 12.651,7.4135 13.202,8.3064 0.15408,0.24931 -0.84942,1.1854 -2.23,2.0801 -2.8082,1.81999 -6.4768,5.07079 -6.4768,5.7393 0,0.24027 1.7672,2.1923 3.9272,4.3378 l 3.9272,3.9009 2.4958,-2.1969 c 4.3185,-3.80131 8.9146,-4.2294 11.567,-1.0773 1.6035,1.90559 1.7027,3.3688 0.36591,5.39629 -0.94513,1.43341 -2.4104,2.61951 -9.5943,7.7664104 -4.7855,3.42849 -9.0514,7.70968996 -11.579,11.620995 l -2.2017,3.406399 0.14951,5.3123006 0.14952,5.312401 40.196,0.528878 0.33923,3.173303 c 2.0071,18.773998 -2.8544,38.315997 -13.42,53.946995 -2.5722,3.805401 -9.3728,11.945001 -9.8508,11.789999 -0.18668,-0.0604 -2.5201,-0.187994 -5.1852,-0.283671 z m 3.4947,-80.4729976 c 0.82681,-1.544899 5.0654,-5.10050404 10.607,-8.897594 2.7634,-1.89361 5.282,-3.54461 5.5969,-3.66891 0.47983,-0.18935 3.9231,6.30379996 3.9231,7.39800996 0,0.19495 -1.785,0.35446004 -3.9667,0.35446004 h -3.9667 v 5.817803 h -6.3653 c -6.0872,0 -6.3418,-0.0438 -5.8281,-1.003801 z" />
  </g>
</svg>
