<?xml version="1.0" encoding="UTF-8" standalone="no"?>
<!-- Created with Inkscape (http://www.inkscape.org/) -->

<svg
   xmlns:dc="http://purl.org/dc/elements/1.1/"
   xmlns:cc="http://creativecommons.org/ns#"
   xmlns:rdf="http://www.w3.org/1999/02/22-rdf-syntax-ns#"
   xmlns:svg="http://www.w3.org/2000/svg"
   xmlns="http://www.w3.org/2000/svg"
   xmlns:sodipodi="http://sodipodi.sourceforge.net/DTD/sodipodi-0.dtd"
   xmlns:inkscape="http://www.inkscape.org/namespaces/inkscape"
   width="300"
   height="300"
   viewBox="0 0 79.374998 79.375002"
   version="1.1"
   id="svg8"
   inkscape:version="0.92.4 (5da689c313, 2019-01-14)"
   sodipodi:docname="user.svg">
  <defs
     id="defs2" />
  <sodipodi:namedview
     id="base"
     pagecolor="#ffffff"
     bordercolor="#666666"
     borderopacity="1.0"
     inkscape:pageopacity="0.0"
     inkscape:pageshadow="2"
     inkscape:zoom="1"
     inkscape:cx="162.11722"
     inkscape:cy="203.7709"
     inkscape:document-units="mm"
     inkscape:current-layer="layer1"
     showgrid="false"
     units="px"
     inkscape:window-width="1920"
     inkscape:window-height="1016"
     inkscape:window-x="0"
     inkscape:window-y="27"
     inkscape:window-maximized="1" />
  <metadata
     id="metadata5">
    <rdf:RDF>
      <cc:Work
         rdf:about="">
        <dc:format>image/svg+xml</dc:format>
        <dc:type
           rdf:resource="http://purl.org/dc/dcmitype/StillImage" />
        <dc:title></dc:title>
      </cc:Work>
    </rdf:RDF>
  </metadata>
  <g
     inkscape:label="Layer 1"
     inkscape:groupmode="layer"
     id="layer1"
     transform="translate(0,-217.62498)">
    <path
       style="fill:#333333;stroke-width:4.18288469"
       d="M 156.86133 0.15625 A 150 150 0 0 0 19.570312 75.917969 A 150 150 0 0 0 39.351562 251.14258 A 146.86042 302.36042 0 0 1 150.56445 149.00391 A 146.86042 302.36042 0 0 1 156.2168 148.95508 A 146.86042 302.36042 0 0 1 222.03125 188.08789 L 192.93945 293.54102 A 150 150 0 0 0 192.94336 293.53906 L 222.03516 188.09375 A 146.86042 302.36042 0 0 1 259.81641 251.93945 A 150 150 0 0 0 280.42773 224.08398 A 150 150 0 0 0 224.08594 19.572266 L 197.18555 66.931641 A 49.360414 49.360414 0 0 1 192.41992 103.87891 A 49.360414 49.360414 0 0 1 163.09961 126.93945 L 163.09766 126.93945 A 49.360414 49.360414 0 0 1 125.12109 122.41992 A 49.360414 49.360414 0 0 1 106.58008 55.121094 A 49.360414 49.360414 0 0 1 151.75781 30.191406 A 49.360414 49.360414 0 0 1 173.87695 36.580078 L 149.5 79.5 L 173.87891 36.580078 A 49.360414 49.360414 0 0 1 197.18359 66.927734 L 224.08203 19.570312 A 150 150 0 0 0 156.86133 0.15625 z "
       transform="matrix(0.26458333,0,0,0.26458333,0,217.62498)"
       id="path3713" />
  </g>
  <g
     inkscape:groupmode="layer"
     id="layer2"
     inkscape:label="Layer 2" />
</svg>
