<svg xmlns="http://www.w3.org/2000/svg" xmlns:xlink="http://www.w3.org/1999/xlink" version="1.1" x="0px" y="0px" viewBox="0 0 100 125" enable-background="new 0 0 100 100" xml:space="preserve"><g><path d="M74.005,47.203L20.25,16.167c-1.082-0.625-2.416-0.625-3.5,0C15.667,16.793,15,17.948,15,19.199V81.27   c0,1.25,0.667,2.406,1.75,3.031c0.542,0.313,1.146,0.469,1.75,0.469c0.604,0,1.208-0.156,1.75-0.469l53.755-31.035   c1.083-0.625,1.75-1.781,1.75-3.031C75.755,48.984,75.088,47.829,74.005,47.203z"/><path d="M81.5,15.5c-1.933,0-3.5,1.567-3.5,3.5v62c0,1.933,1.567,3.5,3.5,3.5S85,82.933,85,81V19C85,17.067,83.433,15.5,81.5,15.5z   "/></g><text x="0" y="115" fill="#000000" font-size="5px" font-weight="bold" font-family="'Helvetica Neue', Helvetica, Arial-Unicode, Arial, Sans-serif">Created by Perametade Games</text><text x="0" y="120" fill="#000000" font-size="5px" font-weight="bold" font-family="'Helvetica Neue', Helvetica, Arial-Unicode, Arial, Sans-serif">from the Noun Project</text></svg>