<svg
   width="200"
   width="200"
   viewBox="0 0 400 400">
  <path
     d="m 198.19358,376.71375 v -29.33333 h -15.4069 -15.40691 l 0.40691,-50.33333 0.4069,-50.33334 3.33334,-5.88189 c 4.72057,-8.32976 9.14336,-11.17109 18.43497,-11.84319 10.32369,-0.74674 15.00131,1.70828 19.09515,10.02204 l 3.13654,6.36971 0.39171,80.33333 0.39171,80.33334 h -7.39171 -7.39171 z M 61.08057,353.15731 c -6.88478,-5.38906 -22.94622,-24.34734 -31.43534,-37.105 l -7.67118,-11.52845 0.44309,-29.57172 c 0.39517,-26.37327 0.73152,-30.14667 3.10976,-34.88745 3.89406,-7.76244 10.01162,-11.35094 19.3507,-11.35094 8.48198,0 13.19368,2.6509 16.67402,9.38114 3.46409,6.69881 4.7573,28.71654 4.36091,74.2475 l -0.38563,44.2953 z m 268.23007,-6.76877 -12.21629,-0.43843 -0.59255,-52.9515 c -0.5268,-47.07651 -0.89359,-54.28294 -3.30587,-64.95152 -5.5362,-24.48452 -12.94125,-38.8189 -26.51849,-51.33335 -15.18599,-13.99723 -30.99299,-19.77757 -57.30696,-20.95612 -20.22782,-0.90593 -31.88142,1.44131 -48.52736,9.77429 -8.48606,4.24814 -14.85419,8.75779 -22.42775,15.88246 l -10.5767,9.9498 -5.46287,-7.08088 c -14.02419,-18.17795 -33.28129,-26.99222 -62.2427,-28.48941 -24.34331,-1.25845 -38.38725,4.48017 -58.87789,24.05863 l -12.3554558,11.80544 -1.40539,-3.80544 c -0.77296,-2.09298 -2.94556,-7.88488 -4.828,-12.87088 -4.08929,-10.83129 -3.75387,-14.8357 2.9593,-35.32918 C 22.29585,88.762856 59.8337,45.333384 108.10305,21.091064 c 55.94655,-28.0980405 125.04819,-28.1229605 181.42387,-0.0654 10.46485,5.20823 31.89205,18.68941 33.28339,20.94064 0.38845,0.62853 -2.14139,2.98831 -5.62188,5.24395 -7.07955,4.5881 -16.32818,12.78361 -16.32818,14.46893 0,0.60574 4.45518,5.52678 9.90038,10.93565 l 9.90038,9.834302 6.29203,-5.538462 c 10.88696,-9.5831 22.47376,-10.66226 29.16017,-2.71591 4.0424,4.80412 4.29252,8.492832 0.92244,13.604132 -2.38268,3.61374 -6.0766,6.60388 -24.18722,19.579044 -12.06431,8.64334 -22.8186,19.43631 -29.19159,29.29656 l -5.5505,8.58768 0.37696,13.39246 0.37695,13.39247 50.66667,0.66667 50.66667,0.66667 0.85529,8 c 5.05989,47.32815 -7.19592,96.59465 -33.83215,136 -6.48464,9.59331 -23.629,30.11296 -24.83406,29.72328 -0.47067,-0.1522 -6.35308,-0.47401 -13.07203,-0.71516 z m 8.81007,-202.87196 c 2.0844,-3.89473 12.76984,-12.85844 26.73954,-22.43105 6.96667,-4.77385 13.31606,-8.93602 14.10975,-9.24926 1.20965,-0.47743 9.89025,15.89195 9.89025,18.65048 0,0.49151 -4.5,0.89367 -10,0.89367 h -10 v 7.33332 7.33335 h -16.0469 c -15.34591,0 -15.98776,-0.11054 -14.69264,-2.53051 z"/>
</svg>
